<?xml version="1.0" encoding="UTF-8"?>
<svg width="588px" height="230px" viewBox="0 0 588 230" version="1.1" xmlns="http://www.w3.org/2000/svg" xmlns:xlink="http://www.w3.org/1999/xlink">
    <!-- Generator: Sketch 48.2 (47327) - http://www.bohemiancoding.com/sketch -->
    <title>sitter-illustration</title>
    <desc>Created with Sketch.</desc>
    <defs>
        <path d="M16.0392222,0.494214286 C7.60711111,0.494214286 0.771222222,7.2845 0.771222222,15.6618571 L0.771222222,35.5919286 C0.771222222,43.9692857 7.60711111,50.7607857 16.0392222,50.7607857 L17.303,50.7607857 C25.7351111,50.7607857 32.571,43.9692857 32.571,35.5919286 L32.571,15.6618571 C32.571,7.2845 25.7351111,0.494214286 17.303,0.494214286 L16.0392222,0.494214286 Z" id="path-1"></path>
        <path d="M16.0392222,0.494214286 C7.60711111,0.494214286 0.771222222,7.2845 0.771222222,15.6618571 L0.771222222,35.5919286 C0.771222222,43.9692857 7.60711111,50.7607857 16.0392222,50.7607857 L17.303,50.7607857 C25.7351111,50.7607857 32.571,43.9692857 32.571,35.5919286 L32.571,15.6618571 C32.571,7.2845 25.7351111,0.494214286 17.303,0.494214286 L16.0392222,0.494214286 Z" id="path-3"></path>
    </defs>
    <g id="GoFetch-ca-Web-About-Content-Update" stroke="none" stroke-width="1" fill="none" fill-rule="evenodd" transform="translate(-668.000000, -182.000000)">
        <g id="sitter-illustration" transform="translate(668.000000, 182.000000)">
            <path d="M205,229 L205,128 L205,229 Z" id="Fill-1" fill="#00AEB2"></path>
            <polygon id="Fill-2" fill="#0B7C7E" points="203 229 207 229 207 128 203 128"></polygon>
            <polygon id="Fill-3" fill="#0B7C7E" points="115 229 119 229 119 128 115 128"></polygon>
            <polygon id="Fill-4" fill="#0B7C7E" points="514 229 518 229 518 156 514 156"></polygon>
            <polygon id="Fill-5" fill="#0B7C7E" points="584 228 588 228 588 184 584 184"></polygon>
            <polygon id="Fill-6" fill="#97D7D4" points="498 184 586 184 586 128 498 128"></polygon>
            <polygon id="Fill-7" fill="#97D7D4" points="117 155 516 155 516 85 117 85"></polygon>
            <polygon id="Fill-8" fill="#97D7D4" points="117 184 559 184 559 155 117 155"></polygon>
            <path d="M118.623807,182.353323 L557.378608,182.353323 L557.378608,156.646677 L118.623807,156.646677 L118.623807,182.353323 Z M115,186 L561,186 L561,153 L115,153 L115,186 Z" id="Fill-9" fill="#0B7C7E"></path>
            <polygon id="Fill-10" fill="#F8F3EF" points="183 143 293 143 293 85 183 85"></polygon>
            <polygon id="Fill-11" fill="#DFF6F2" points="183 98 293 98 293 85 183 85"></polygon>
            <polygon id="Fill-12" fill="#DFF6F2" points="183 121 293 121 293 108 183 108"></polygon>
            <g id="Group-114">
                <path d="M212.047716,149.35991 C211.046414,149.35991 210.235951,148.545889 210.235951,147.542899 L210.235951,143.008853 C210.235951,142.005863 211.046414,141.191843 212.047716,141.191843 C213.049018,141.191843 213.859481,142.005863 213.859481,143.008853 L213.859481,147.542899 C213.859481,148.545889 213.049018,149.35991 212.047716,149.35991" id="Fill-13" fill="#F8F3EF"></path>
                <path d="M222.612841,149.35991 C221.611539,149.35991 220.801076,148.545889 220.801076,147.542899 L220.801076,143.008853 C220.801076,142.005863 221.611539,141.191843 222.612841,141.191843 C223.614143,141.191843 224.424605,142.005863 224.424605,143.008853 L224.424605,147.542899 C224.424605,148.545889 223.614143,149.35991 222.612841,149.35991" id="Fill-15" fill="#F8F3EF"></path>
                <path d="M233.177362,149.35991 C232.17606,149.35991 231.365597,148.545889 231.365597,147.542899 L231.365597,143.008853 C231.365597,142.005863 232.17606,141.191843 233.177362,141.191843 C234.178664,141.191843 234.989126,142.005863 234.989126,143.008853 L234.989126,147.542899 C234.989126,148.545889 234.178664,149.35991 233.177362,149.35991" id="Fill-17" fill="#F8F3EF"></path>
                <path d="M243.742365,149.35991 C242.741064,149.35991 241.930601,148.545889 241.930601,147.542899 L241.930601,143.008853 C241.930601,142.005863 242.741064,141.191843 243.742365,141.191843 C244.743667,141.191843 245.55413,142.005863 245.55413,143.008853 L245.55413,147.542899 C245.55413,148.545889 244.743667,149.35991 243.742365,149.35991" id="Fill-19" fill="#F8F3EF"></path>
                <path d="M254.306886,149.35991 C253.305584,149.35991 252.495122,148.545889 252.495122,147.542899 L252.495122,143.008853 C252.495122,142.005863 253.305584,141.191843 254.306886,141.191843 C255.308188,141.191843 256.118651,142.005863 256.118651,143.008853 L256.118651,147.542899 C256.118651,148.545889 255.308188,149.35991 254.306886,149.35991" id="Fill-21" fill="#F8F3EF"></path>
                <path d="M264.872011,149.35991 C263.870709,149.35991 263.060246,148.545889 263.060246,147.542899 L263.060246,143.008853 C263.060246,142.005863 263.870709,141.191843 264.872011,141.191843 C265.873313,141.191843 266.683776,142.005863 266.683776,143.008853 L266.683776,147.542899 C266.683776,148.545889 265.873313,149.35991 264.872011,149.35991" id="Fill-23" fill="#F8F3EF"></path>
                <path d="M275.436532,149.35991 C274.43523,149.35991 273.624767,148.545889 273.624767,147.542899 L273.624767,143.008853 C273.624767,142.005863 274.43523,141.191843 275.436532,141.191843 C276.437834,141.191843 277.248296,142.005863 277.248296,143.008853 L277.248296,147.542899 C277.248296,148.545889 276.437834,149.35991 275.436532,149.35991" id="Fill-25" fill="#F8F3EF"></path>
                <path d="M286.001656,149.35991 C285.000355,149.35991 284.189892,148.545889 284.189892,147.542899 L284.189892,143.008853 C284.189892,142.005863 285.000355,141.191843 286.001656,141.191843 C287.002958,141.191843 287.813421,142.005863 287.813421,143.008853 L287.813421,147.542899 C287.813421,148.545889 287.002958,149.35991 286.001656,149.35991" id="Fill-27" fill="#F8F3EF"></path>
                <polygon id="Fill-29" fill="#97D7D4" points="116.609145 184.094485 205.055875 184.094485 205.055875 127.991263 116.609145 127.991263"></polygon>
                <path d="M118.42091,182.277474 L203.24411,182.277474 L203.24411,129.808273 L118.42091,129.808273 L118.42091,182.277474 Z M114.79738,185.911495 L206.867639,185.911495 L206.867639,126.174253 L114.79738,126.174253 L114.79738,185.911495 Z" id="Fill-31" fill="#0B7C7E"></path>
                <polygon id="Fill-32" fill="#0B7C7E" points="116.609145 129.808273 205.055875 129.808273 205.055875 126.174253 116.609145 126.174253"></polygon>
                <polygon id="Fill-33" fill="#0B7C7E" points="330.384094 154.843041 334.007624 154.843041 334.007624 84.716134 330.384094 84.716134"></polygon>
                <polygon id="Fill-34" fill="#0B7C7E" points="513.531765 156.042268 517.155294 156.042268 517.155294 127.991263 513.531765 127.991263"></polygon>
                <polygon id="Fill-35" fill="#0B7C7E" points="551.723765 185.911495 584.712376 185.911495 584.712376 182.277474 551.723765 182.277474"></polygon>
                <path d="M42.1824549,62.2865954 C38.3149412,62.2865954 34.0053569,69.4335026 34.0053569,79.6911314 C34.0053569,89.9487603 38.3149412,97.0968789 42.1824549,97.0968789 C46.0499686,97.0968789 50.3595529,89.9487603 50.3595529,79.6911314 C50.3595529,69.4335026 46.0499686,62.2865954 42.1824549,62.2865954 M42.1824549,100.730899 C35.5658902,100.730899 30.3818275,91.4883737 30.3818275,79.6911314 C30.3818275,67.8938892 35.5658902,58.6525747 42.1824549,58.6525747 C48.8002275,58.6525747 53.9830824,67.8938892 53.9830824,79.6911314 C53.9830824,91.4883737 48.8002275,100.730899 42.1824549,100.730899" id="Fill-36" fill="#17797E"></path>
                <polygon id="Fill-37" fill="#17797E" points="40.3700863 113.245619 43.9936157 113.245619 43.9936157 60.4699485 40.3700863 60.4699485"></polygon>
                <polygon id="Fill-38" fill="#17797E" points="40.7935561 80.8576521 32.3144973 70.7005644 35.0925365 68.3675232 43.5715953 78.5246108"></polygon>
                <polygon id="Fill-39" fill="#17797E" points="43.5713537 80.8576521 40.7933145 78.5246108 49.2735812 68.3675232 52.0516204 70.7005644"></polygon>
                <polygon id="Fill-40" fill="#17797E" points="40.7935561 91.6876392 30.8046933 79.723232 33.5827325 77.3901907 43.5715953 89.3545979"></polygon>
                <polygon id="Fill-41" fill="#17797E" points="43.5713537 91.6876392 40.7933145 89.3545979 50.7652675 77.4107835 53.5433067 79.7438247"></polygon>
                <polygon id="Fill-42" fill="#F26F61" points="23.7996863 113.238351 59.9504314 113.238351 59.9504314 104.906753 23.7996863 104.906753"></polygon>
                <polygon id="Fill-43" fill="#F26F61" points="27.491338 113.238593 33.4906949 141.008567 50.5659733 141.008567 56.8733302 112.311918"></polygon>
                <path d="M55.1815043,114.730237 L40.3020847,114.730237 C39.3019906,114.730237 38.49032,113.916216 38.49032,112.913227 C38.49032,111.910237 39.3019906,111.096216 40.3020847,111.096216 L55.1815043,111.096216 C56.1828063,111.096216 56.993269,111.910237 56.993269,112.913227 C56.993269,113.916216 56.1828063,114.730237 55.1815043,114.730237" id="Fill-44" fill="#F8F3EF"></path>
                <path d="M34.7731827,114.730237 L32.3115984,114.730237 C31.3102965,114.730237 30.4998337,113.916216 30.4998337,112.913227 C30.4998337,111.910237 31.3102965,111.096216 32.3115984,111.096216 L34.7731827,111.096216 C35.7744847,111.096216 36.5849475,111.910237 36.5849475,112.913227 C36.5849475,113.916216 35.7744847,114.730237 34.7731827,114.730237" id="Fill-45" fill="#F8F3EF"></path>
                <polygon id="Fill-46" fill="#F8F3EF" points="2.47763137 184.094485 32.1434667 184.094485 32.1434667 142.017371 2.47763137 142.017371"></polygon>
                <path d="M4.28939608,182.277474 L30.331702,182.277474 L30.331702,143.834381 L4.28939608,143.834381 L4.28939608,182.277474 Z M0.665866667,185.911495 L33.9552314,185.911495 L33.9552314,140.200361 L0.665866667,140.200361 L0.665866667,185.911495 Z" id="Fill-47" fill="#0A7C7E"></path>
                <polygon id="Fill-48" fill="#0A7C7E" points="0.665866667 229.18299 4.28939608 229.18299 4.28939608 184.094485 0.665866667 184.094485"></polygon>
                <polygon id="Fill-49" fill="#0A7C7E" points="30.331702 229.18299 33.9552314 229.18299 33.9552314 184.094485 30.331702 184.094485"></polygon>
                <polygon id="Fill-50" fill="#0A7C7E" points="136.282494 229.18299 139.906024 229.18299 139.906024 184.094485 136.282494 184.094485"></polygon>
                <polygon id="Fill-51" fill="#F8F3EF" points="32.1434667 184.094485 138.094259 184.094485 138.094259 142.017371 32.1434667 142.017371"></polygon>
                <path d="M33.9552314,182.277474 L136.282494,182.277474 L136.282494,143.834381 L33.9552314,143.834381 L33.9552314,182.277474 Z M30.331702,185.911495 L139.906024,185.911495 L139.906024,140.200361 L30.331702,140.200361 L30.331702,185.911495 Z" id="Fill-52" fill="#0A7C7E"></path>
                <polygon id="Fill-53" fill="#0A7C7E" points="85.4262588 184.094485 89.0497882 184.094485 89.0497882 142.017371 85.4262588 142.017371"></polygon>
                <polygon id="Fill-54" fill="#0A7C7E" points="37.7949647 153.04299 47.9662118 153.04299 47.9662118 149.408969 37.7949647 149.408969"></polygon>
                <polygon id="Fill-55" fill="#BD5747" points="409.768376 229.18299 444.269208 229.18299 444.269208 224.51933 409.768376 224.51933"></polygon>
                <path d="M474.758913,229.18299 L439.651744,229.18299 C439.651744,220.773866 446.448278,213.957655 454.833125,213.957655 L459.576325,213.957655 C467.961172,213.957655 474.758913,220.773866 474.758913,229.18299" id="Fill-56" fill="#BD5747"></path>
                <polygon id="Fill-57" fill="#F26F61" points="383.556973 229.18299 418.056596 229.18299 418.056596 224.51933 383.556973 224.51933"></polygon>
                <path d="M448.54618,229.18299 L413.439012,229.18299 C413.439012,220.773866 420.236753,213.957655 428.6216,213.957655 L433.3648,213.957655 C441.748439,213.957655 448.54618,220.773866 448.54618,229.18299" id="Fill-58" fill="#F26F61"></path>
                <path d="M452.812524,154.84292 L395.51003,154.84292 C387.459755,154.84292 380.932571,148.298049 380.932571,140.224466 L380.932571,122.956812 C380.932571,114.883229 387.459755,108.337147 395.51003,108.337147 L452.812524,108.337147 C460.862798,108.337147 467.388775,114.883229 467.388775,122.956812 L467.388775,140.224466 C467.388775,148.298049 460.862798,154.84292 452.812524,154.84292" id="Fill-76" fill="#F26F61"></path>
                <path d="M478.12179,146.90525 L475.440378,146.90525 L472.686496,146.90525 L453.1907,146.90525 L453.1907,154.843162 L472.686496,154.843162 L475.440378,154.843162 L486.036786,154.843162 C486.036786,150.459322 482.491766,146.90525 478.12179,146.90525" id="Fill-77" fill="#F26F61"></path>
                <path d="M363.631426,146.90525 L366.31163,146.90525 L369.06672,146.90525 L388.561308,146.90525 L388.561308,154.843162 L369.06672,154.843162 L366.31163,154.843162 L355.71643,154.843162 C355.71643,150.459322 359.260242,146.90525 363.631426,146.90525" id="Fill-78" fill="#B25344"></path>
                <path d="M375.074169,146.90525 L377.754373,146.90525 L380.509464,146.90525 L400.004052,146.90525 L400.004052,154.843162 L380.509464,154.843162 L377.754373,154.843162 L367.159173,154.843162 C367.159173,150.459322 370.702985,146.90525 375.074169,146.90525" id="Fill-79" fill="#F26F61"></path>
                <polygon id="Fill-80" fill="#F26F61" points="458.81635 108.473665 476.711754 97.8138711 467.38962 119.779103"></polygon>
                <path d="M424.76085,154.84292 L399.642544,78.4364253 L369.61798,78.4364253 L367.852113,81.1910129 L350.582372,81.1910129 C350.582372,94.1257036 361.037462,104.611064 373.934811,104.611064 L381.000693,104.611064 L381.000693,132.557894 L380.509101,154.84292 L424.76085,154.84292 Z" id="Fill-81" fill="#F26F61"></path>
                <polygon id="Fill-82" fill="#0B7C7E" points="409.472938 108.337631 381.048765 108.337631 381.048765 104.481936 408.204703 104.481936"></polygon>
                <path d="M365.153067,81.1912552 L350.582855,81.1912552 C350.582855,86.620482 351.992408,91.5966675 354.580816,95.5432139 C354.822384,95.91025 355.073616,96.270018 355.336925,96.6200954 C358.954416,101.45092 364.497208,104.482905 371.47371,104.482905 L365.153067,81.1912552 Z" id="Fill-83" fill="#F8F3EF"></path>
                <polygon id="Fill-84" fill="#B25344" points="357.073321 100.454472 356.308756 99.5181057 364.403721 92.875116 365.168285 93.8126933"></polygon>
                <path d="M366.148571,92.2613299 L362.270187,94.693701 C360.185449,95.9995258 357.785465,96.7154278 355.327504,96.7638814 L354.491677,95.4059691" id="Fill-85" fill="#F8F3EF"></path>
                <path d="M363.314125,92.545268 C363.314125,92.8638505 363.741702,93.1230773 364.270737,93.1230773 C364.798565,93.1230773 365.227349,92.8638505 365.227349,92.545268 C365.227349,92.2254742 364.798565,91.9662474 364.270737,91.9662474 C363.741702,91.9662474 363.314125,92.2254742 363.314125,92.545268" id="Fill-86" fill="#F8F3EF"></path>
                <path d="M354.994864,94.2664613 C354.994864,95.3057912 356.115743,96.148884 357.498723,96.148884 C358.881704,96.148884 360.002582,95.3057912 360.002582,94.2664613 C360.002582,93.2283428 358.881704,92.3840387 357.498723,92.3840387 C356.115743,92.3840387 354.994864,93.2283428 354.994864,94.2664613" id="Fill-87" fill="#F8F3EF"></path>
                <path d="M357.352816,81.0931366 L357.352816,83.6018222 C357.352816,84.744116 356.430024,85.6683686 355.292235,85.6683686 L351.010431,85.6683686 L350.986275,85.5799407 C350.621506,84.2377758 350.480188,82.8447345 350.565945,81.45775 L350.582855,81.1912552 L357.352816,81.0931366 Z" id="Fill-88" fill="#4B4A4B"></path>
                <path d="M396.226764,103.363263 L395.802811,103.363263 C390.978685,103.363263 387.053195,99.4264072 387.053195,94.5871031 L387.053195,76.4945258 C387.053195,75.825866 387.594309,75.2831856 388.261038,75.2831856 C388.928976,75.2831856 389.468882,75.825866 389.468882,76.4945258 L389.468882,94.5871031 C389.468882,98.090299 392.310936,100.940582 395.802811,100.940582 L396.226764,100.940582 C399.878074,100.940582 402.849368,97.9606856 402.849368,94.2975928 C402.849368,93.6277216 403.390482,93.0862526 404.057211,93.0862526 C404.725148,93.0862526 405.265054,93.6277216 405.265054,94.2975928 C405.265054,99.2967938 401.210325,103.363263 396.226764,103.363263" id="Fill-89" fill="#B25344"></path>
                <path d="M379.062105,87.994384 C377.542638,87.994384 376.131878,87.2009562 375.192176,85.8163943 L374.753729,85.17075 C374.376882,84.6171675 374.519407,83.8637139 375.070184,83.4869871 C375.623376,83.1114716 376.373446,83.2519871 376.749085,83.8055696 L377.187533,84.4512139 C378.169509,85.8975541 379.954701,85.8975541 380.936678,84.4512139 L381.375125,83.8055696 C381.750764,83.2544098 382.500835,83.1114716 383.054027,83.4869871 C383.604803,83.8637139 383.747329,84.6171675 383.370482,85.17075 L382.932035,85.8163943 C381.992333,87.2009562 380.581572,87.994384 379.062105,87.994384" id="Fill-90" fill="#4B4A4B"></path>
                <polygon id="Fill-91" fill="#F8F3EF" points="381.121598 116.639552 397.4613 146.904887 380.509222 146.904887"></polygon>
                <path d="M418.085826,125.518796 C417.417889,125.518796 416.877983,124.977327 416.877983,124.307456 L416.877983,116.639673 C416.877983,115.969802 417.417889,115.428332 418.085826,115.428332 C418.753763,115.428332 419.293669,115.969802 419.293669,116.639673 L419.293669,124.307456 C419.293669,124.977327 418.753763,125.518796 418.085826,125.518796" id="Fill-92" fill="#F8F3EF"></path>
                <path d="M423.699277,125.518796 C423.03134,125.518796 422.491434,124.977327 422.491434,124.307456 L422.491434,116.639673 C422.491434,115.969802 423.03134,115.428332 423.699277,115.428332 C424.367214,115.428332 424.90712,115.969802 424.90712,116.639673 L424.90712,124.307456 C424.90712,124.977327 424.367214,125.518796 423.699277,125.518796" id="Fill-93" fill="#F8F3EF"></path>
                <path d="M440.275233,139.261088 C439.607296,139.261088 439.06739,138.719619 439.06739,138.049747 L439.06739,130.381964 C439.06739,129.712093 439.607296,129.170624 440.275233,129.170624 C440.94317,129.170624 441.483076,129.712093 441.483076,130.381964 L441.483076,138.049747 C441.483076,138.719619 440.94317,139.261088 440.275233,139.261088" id="Fill-94" fill="#F8F3EF"></path>
                <path d="M445.887476,139.261088 C445.219539,139.261088 444.679633,138.719619 444.679633,138.049747 L444.679633,130.381964 C444.679633,129.712093 445.219539,129.170624 445.887476,129.170624 C446.555413,129.170624 447.095319,129.712093 447.095319,130.381964 L447.095319,138.049747 C447.095319,138.719619 446.555413,139.261088 445.887476,139.261088" id="Fill-95" fill="#F8F3EF"></path>
                <path d="M251.441278,24.9373428 C251.441278,32.8413376 247.169137,37.9931675 240.057357,42.3757964 L226.465498,50.7522139 L226.469122,50.7558479 C220.493922,54.2869046 216.547898,60.4950232 216.619161,67.5559253 C216.727867,78.1527294 226.051208,86.8622655 237.506392,87.0633479 C242.801576,87.1566211 247.664353,85.4631675 251.441278,82.5910799 L280.111851,67.1913119 C287.141498,63.4155644 291.528384,56.0663634 291.528384,48.0703067 L291.528384,24.9373428 L251.441278,24.9373428 Z" id="Fill-99" fill="#4C4A4B"></path>
                <path d="M291.528867,42.8862552 L251.496115,54.0112036 L251.496115,18.5225696 C251.496115,8.30733763 260.458311,0.0254046392 271.512491,0.0254046392 C282.567879,0.0254046392 291.528867,8.30733763 291.528867,18.5225696 L291.528867,42.8862552 Z" id="Fill-100" fill="#4C4A4B"></path>
                <path d="M298.445098,188.425631 L282.898949,204.594601 L304.768157,227.825683 C310.800125,223.652616 311.702384,215.069059 306.672925,209.724626 L301.668831,204.410477 L307.833663,198.399807 L298.445098,188.425631" id="Fill-101" fill="#ADA49E"></path>
                <path d="M313.724193,204.594237 L312.490985,227.03068 L346.631879,227.03068 C347.746718,219.767485 342.142326,213.216557 334.814342,213.216557 L327.088977,213.216557 L327.401809,204.594237 L313.724193,204.594237" id="Fill-102" fill="#E1D8D2"></path>
                <path d="M293.045194,138.77849 L263.850417,138.77849 L263.850417,59.3618144 L273.553021,59.3618144 C284.318527,59.3618144 293.045194,68.1149588 293.045194,78.9104227 L293.045194,138.77849 Z" id="Fill-103" fill="#029B9B"></path>
                <polygon id="Fill-104" fill="#E1D8D2" points="286.219793 118.754673 311.62315 135.706168 308.904295 142.429106 286.219793 142.429106"></polygon>
                <path d="M282.465937,126.280608 L340.025702,148.251897 C345.938094,150.16218 347.846486,157.601021 343.587631,162.136278 L307.834267,198.40017 L298.444494,188.425995 L324.388965,160.057619 L277.354345,142.62401 L282.465937,126.280608 Z" id="Fill-105" fill="#3D3D3D"></path>
                <polygon id="Fill-106" fill="#3D3D3D" points="285.126936 126.154023 306.965948 135.624281 291.029666 142.432013"></polygon>
                <path d="M263.44893,126.154023 L323.443707,134.404461 C331.570075,135.521317 337.238483,143.057064 336.080162,151.200905 L326.265228,211.587425 L313.396867,211.587425 L315.869322,158.771781 L259.006483,150.050131 L263.44893,126.154023 Z" id="Fill-107" fill="#4C4A4B"></path>
                <path d="M287.795666,150.049647 L259.006725,150.049647 C248.457423,150.049647 239.904685,141.472147 239.904685,130.892302 L239.904685,118.782534 L287.795666,118.58993 L287.795666,150.049647 Z" id="Fill-108" fill="#F16F61"></path>
                <path d="M302.847082,134.633405 L287.796149,132.793379 L287.796149,118.781807 L261.910863,118.781807 L272.285027,152.086394 L299.591945,156.273997 C297.3828,149.13557 298.460196,141.379358 302.531835,135.116729 L302.847082,134.633405 Z" id="Fill-109" fill="#4C4A4B"></path>
                <path d="M271.026213,59.1766005 L256.673413,59.1766005 C247.411672,59.1766005 239.903719,66.7062912 239.903719,75.9948479 L239.903719,118.781807 L287.795907,118.781807 L287.795907,75.9948479 C287.795907,66.7062912 280.287955,59.1766005 271.026213,59.1766005" id="Fill-110" fill="#E1D8D2"></path>
                <path d="M280.8647,97.7004897 L277.3535,97.7004897 L277.3535,69.1746392 L280.8647,69.1746392 C288.718096,69.1746392 295.085845,75.5608247 295.085845,83.4381701 C295.085845,91.3155155 288.718096,97.7004897 280.8647,97.7004897" id="Fill-111" fill="#E1D8D2"></path>
                <polyline id="Fill-112" fill="#0A9298" points="239.137464 73.1614021 230.062938 137.496892 244.377087 140.061299 255.711487 73.4048814"></polyline>
                <path d="M273.927332,65.8744639 C270.807473,65.8744639 268.279457,63.3379175 268.279457,60.2090258 L268.279457,49.6945928 L279.575206,49.6945928 L279.575206,60.2090258 C279.575206,63.3379175 277.047191,65.8744639 273.927332,65.8744639" id="Fill-113" fill="#F7F3EF"></path>
            </g>
            <g id="Group-117" transform="translate(264.000000, 44.000000)" fill="#4C4B4C">
                <path d="M20.76244,8.20413571 C20.76244,12.3399929 16.21684,15.6926357 10.61164,15.6926357 C5.00524,15.6926357 0.46084,12.3399929 0.46084,8.20413571 C0.46084,4.06827857 5.00524,0.714421429 10.61164,0.714421429 C16.21684,0.714421429 20.76244,4.06827857 20.76244,8.20413571" id="Fill-115"></path>
            </g>
            <g id="Group-124" transform="translate(239.000000, 6.000000)">
                <path d="M33.3861455,147.917023 L0.3286,147.917023 L0.3286,70.2109574 C0.3286,61.0167607 7.72932727,53.5645967 16.8573727,53.5645967 C25.9854182,53.5645967 33.3861455,61.0167607 33.3861455,70.2109574 L33.3861455,147.917023 Z" id="Fill-118" fill="#0A9298"></path>
                <path d="M36.2845227,50.7114721 C27.9743636,50.7114721 21.2373409,43.9265213 21.2373409,35.5572426 L21.2373409,15.6463902 C21.2373409,7.27711148 27.9743636,0.49337377 36.2845227,0.49337377 L37.5300227,0.49337377 C45.8413864,0.49337377 52.5772045,7.27711148 52.5772045,15.6463902 L52.5772045,35.5572426 C52.5772045,43.9265213 45.8413864,50.7114721 37.5300227,50.7114721" id="Fill-120" fill="#F16F61"></path>
                <path d="M25.3560432,30.6560164 C25.3560432,32.946377 23.5118841,34.8036557 21.2377023,34.8036557 C18.9635205,34.8036557 17.1193614,32.946377 17.1193614,30.6560164 C17.1193614,28.3644426 18.9635205,26.508377 21.2377023,26.508377 C23.5118841,26.508377 25.3560432,28.3644426 25.3560432,30.6560164" id="Fill-122" fill="#F16F61"></path>
            </g>
            <g id="Group-131" transform="translate(259.000000, 6.000000)">
                <g id="Group-127">
                    <mask id="mask-2" fill="white">
                        <use xlink:href="#path-1"></use>
                    </mask>
                    <g id="Clip-126"></g>
                    <path d="M39.6810333,12.7767143 L14.3345889,12.4355 C10.0727,12.3784286 6.53558889,15.4991429 6.3547,19.4771429 L6.19336667,23.0131429 L-8.78496667,23.0131429 L-8.78496667,-5.42057143 L39.6810333,-5.42057143 L39.6810333,12.7767143 Z" id="Fill-125" fill="#4C4A4B" mask="url(#mask-2)"></path>
                </g>
                <g id="Group-130">
                    <mask id="mask-4" fill="white">
                        <use xlink:href="#path-3"></use>
                    </mask>
                    <g id="Clip-129"></g>
                    <polygon id="Fill-128" fill="#0A9298" mask="url(#mask-4)" points="34.2395778 0.493364286 -15.1528667 40.1155071 -14.6493111 0.493364286"></polygon>
                </g>
            </g>
            <g id="Group-152" transform="translate(228.000000, 26.000000)">
                <polygon id="Fill-132" fill="#F16F61" points="85.9530792 173.714595 100.194758 173.714595 99.1475576 185.588152 85.3974714 185.588152"></polygon>
                <polygon id="Fill-134" fill="#C65C55" points="74.7721961 157.693894 85.1644784 166.993353 75.8036941 176.283121 66.0455294 166.988508"></polygon>
                <path d="M17.3129239,115.459064 L1.85011608,112.689941 C1.19425725,112.572441 0.755810196,111.943755 0.874178824,111.284786 C0.990131765,110.625817 1.61217098,110.182466 2.27527686,110.304812 L15.4419749,112.66208 L27.614618,55.9955851 C27.7547278,55.3414613 28.3973004,54.9211263 29.0495357,55.0676985 C29.701771,55.2082139 30.117269,55.8526469 29.9759514,56.5067706 L17.3129239,115.459064 Z" id="Fill-136" fill="#F3ECE9"></path>
                <path d="M55.1388267,25.3974948 C53.3210227,25.3974948 51.509258,24.7312577 50.0634698,23.4096856 C49.5706698,22.959067 49.5356424,22.1922887 49.98496,21.6980619 C50.4342776,21.2038351 51.1988424,21.1687062 51.6916424,21.6193247 C53.5746698,23.3418505 56.3816973,23.4242216 58.3637678,21.8155619 C58.8807247,21.3964381 59.6428737,21.4763866 60.0619953,21.9936289 C60.4823247,22.5145052 60.4026071,23.2776495 59.8844424,23.6991959 C58.4869678,24.8330103 56.8104816,25.3974948 55.1388267,25.3974948" id="Fill-138" fill="#BA5645"></path>
                <path d="M44.0648376,4.24870619 C44.3885396,5.45641237 46.4974337,5.93852577 48.774218,5.32558763 C51.0522102,4.71143814 52.6369004,3.23602577 52.3144063,2.02831959 C51.9907043,0.820613402 49.8818102,0.3385 47.603818,0.951438144 C45.3258259,1.56558763 43.7411357,3.041 44.0648376,4.24870619" id="Fill-140" fill="#4C4A4B"></path>
                <path d="M59.4194227,1.58593814 C58.9737286,2.7536701 60.3977757,4.3865567 62.5996737,5.23328351 C64.8015718,6.08001031 66.947909,5.81957216 67.394811,4.65184021 C67.8417129,3.48410825 66.4176659,1.85243299 64.2157678,1.00570619 C62.012662,0.157768041 59.8663247,0.418206186 59.4194227,1.58593814" id="Fill-142" fill="#4C4A4B"></path>
                <path d="M45.1318463,14.6821005 C44.6293835,14.2411727 44.5786541,13.4756057 45.018309,12.9728995 C45.4591718,12.468982 46.2201129,12.4168943 46.7225757,12.8578222 C47.9739012,13.9589304 49.5283953,13.9589304 50.7797208,12.8578222 C51.2821835,12.415683 52.0443325,12.4677706 52.4839875,12.9728995 C52.9236424,13.4756057 52.8729129,14.2411727 52.371658,14.6821005 C51.2882227,15.6317912 50.0199875,16.1066366 48.7517522,16.1066366 C47.4835169,16.1066366 46.2140737,15.6317912 45.1318463,14.6821005 Z" id="Fill-144" fill="#4C4B4C"></path>
                <polygon id="Fill-146" fill="#F8F3EF" points="72.0285804 107.473789 90.9482353 107.473789 90.9482353 81.4723711 72.0285804 81.4723711"></polygon>
                <path d="M73.8403451,105.656778 L89.1364706,105.656778 L89.1364706,83.2893814 L73.8403451,83.2893814 L73.8403451,105.656778 Z M70.2168157,109.290799 L92.76,109.290799 L92.76,79.6553608 L70.2168157,79.6553608 L70.2168157,109.290799 Z" id="Fill-148" fill="#0A7C7E"></path>
                <path d="M92.7601208,88.9928557 L92.7601208,100.477572 C95.1890933,99.7059485 96.9537522,97.4237835 96.9537522,94.7346082 C96.9537522,92.0466443 95.1890933,89.7656907 92.7601208,88.9928557 M90.9483561,104.392624 L89.1365914,104.392624 L89.1365914,85.0790155 L90.9483561,85.0790155 C96.2580345,85.0790155 100.577282,89.410768 100.577282,94.7346082 C100.577282,100.060871 96.2580345,104.392624 90.9483561,104.392624" id="Fill-149" fill="#0A7C7E"></path>
                <path d="M74.6749647,104.381843 C74.6749647,109.715374 70.3641725,114.039858 65.0448314,114.039858 C59.7279059,114.039858 55.4159059,109.715374 55.4159059,104.381843 C55.4159059,99.0483119 59.7279059,94.7238273 65.0448314,94.7238273 C70.3641725,94.7238273 74.6749647,99.0483119 74.6749647,104.381843" id="Fill-150" fill="#C65C55"></path>
                <path d="M62.2207733,16.1066366 C60.952538,16.1066366 59.6843027,15.6317912 58.6008675,14.6821005 C58.0996125,14.2411727 58.0488831,13.4756057 58.488538,12.9728995 C58.9281929,12.468982 59.6891341,12.4168943 60.1928047,12.8578222 C61.4441302,13.9589304 62.9986243,13.9589304 64.2499498,12.8578222 C64.7524125,12.415683 65.5145616,12.4677706 65.9542165,12.9728995 C66.3938714,13.4756057 66.343142,14.2411727 65.8406792,14.6821005 C64.7584518,15.6317912 63.4890086,16.1066366 62.2207733,16.1066366" id="Fill-151" fill="#4C4B4C"></path>
            </g>
        </g>
    </g>
</svg>